<svg width="234" height="50" viewBox="0 0 234 50" fill="none" xmlns="http://www.w3.org/2000/svg">
<path d="M76.9118 19V9.54C76.9118 6.78547 75.4649 5.22735 72.5713 5.22735C70.4567 5.22735 68.7038 6.31247 67.8135 7.36976V5.56123H64.892V19H67.8135V9.59565C68.5091 8.70529 69.7889 7.81494 71.2636 7.81494C72.9052 7.81494 73.9903 8.48271 73.9903 10.5973V19H76.9118ZM87.3556 19.3339C91.6404 19.3339 94.2558 16.1064 94.2558 12.2667C94.2558 8.39923 91.6404 5.22735 87.3556 5.22735C83.0708 5.22735 80.4554 8.39923 80.4554 12.2667C80.4554 16.1064 83.0708 19.3339 87.3556 19.3339ZM87.3556 16.7463C84.8793 16.7463 83.4881 14.6595 83.4881 12.2667C83.4881 9.90171 84.8793 7.81494 87.3556 7.81494C89.8597 7.81494 91.2231 9.90171 91.2231 12.2667C91.2231 14.6595 89.8597 16.7463 87.3556 16.7463ZM103.889 19.3339C108.174 19.3339 110.789 16.1064 110.789 12.2667C110.789 8.39923 108.174 5.22735 103.889 5.22735C99.604 5.22735 96.9886 8.39923 96.9886 12.2667C96.9886 16.1064 99.604 19.3339 103.889 19.3339ZM103.889 16.7463C101.413 16.7463 100.021 14.6595 100.021 12.2667C100.021 9.90171 101.413 7.81494 103.889 7.81494C106.393 7.81494 107.756 9.90171 107.756 12.2667C107.756 14.6595 106.393 16.7463 103.889 16.7463ZM126.349 19V9.54C126.349 6.78547 124.902 5.22735 122.008 5.22735C119.893 5.22735 118.141 6.31247 117.25 7.36976V5.56123H114.329V19H117.25V9.59565C117.946 8.70529 119.226 7.81494 120.7 7.81494C122.342 7.81494 123.427 8.48271 123.427 10.5973V19H126.349ZM76.0492 41V32.0686C76.0492 28.4794 73.4338 27.2274 70.4289 27.2274C68.2865 27.2274 66.3388 27.8951 64.7807 29.3976L66.0049 31.4287C67.1457 30.2601 68.4812 29.7036 69.9837 29.7036C71.8201 29.7036 73.1278 30.6496 73.1278 32.2078V34.2111C72.1261 33.0703 70.5958 32.486 68.7595 32.486C66.5614 32.486 64.1129 33.7659 64.1129 36.8821C64.1129 39.8314 66.5892 41.3339 68.7595 41.3339C70.5402 41.3339 72.1261 40.6939 73.1278 39.5254V41H76.0492ZM69.9281 39.3306C68.2865 39.3306 67.0344 38.3846 67.0344 36.9099C67.0344 35.4631 68.2865 34.4893 69.9281 34.4893C71.1801 34.4893 72.4322 34.9623 73.1278 35.8805V37.9394C72.4322 38.8576 71.1801 39.3306 69.9281 39.3306ZM99.8136 41V31.2896C99.8136 28.5629 98.3946 27.2274 95.9461 27.2274C93.915 27.2274 92.1343 28.4794 91.383 29.6758C90.9379 28.229 89.7136 27.2274 87.7103 27.2274C85.6514 27.2274 83.8985 28.5629 83.3142 29.3698V27.5612H80.3927V41H83.3142V31.5956C83.9263 30.7331 85.1227 29.8149 86.4305 29.8149C88.0164 29.8149 88.6285 30.7888 88.6285 32.2356V41H91.55V31.5956C92.1343 30.7053 93.3585 29.8149 94.6662 29.8149C96.2522 29.8149 96.8921 30.7888 96.8921 32.2356V41H99.8136ZM107.075 36.9656V31.6235C107.743 30.6218 109.162 29.8149 110.553 29.8149C112.862 29.8149 114.337 31.6791 114.337 34.2667C114.337 36.8821 112.862 38.7463 110.553 38.7463C109.162 38.7463 107.743 37.9672 107.075 36.9656ZM107.075 41V39.1636C108.105 40.4992 109.663 41.3339 111.388 41.3339C114.838 41.3339 117.37 38.7185 117.37 34.2667C117.37 29.9262 114.866 27.2274 111.388 27.2274C109.718 27.2274 108.16 27.9786 107.075 29.4254V22.4417H104.154V41H107.075ZM132.034 41V32.0686C132.034 28.4794 129.419 27.2274 126.414 27.2274C124.272 27.2274 122.324 27.8951 120.766 29.3976L121.99 31.4287C123.131 30.2601 124.466 29.7036 125.969 29.7036C127.805 29.7036 129.113 30.6496 129.113 32.2078V34.2111C128.111 33.0703 126.581 32.486 124.745 32.486C122.546 32.486 120.098 33.7659 120.098 36.8821C120.098 39.8314 122.574 41.3339 124.745 41.3339C126.525 41.3339 128.111 40.6939 129.113 39.5254V41H132.034ZM125.913 39.3306C124.272 39.3306 123.019 38.3846 123.019 36.9099C123.019 35.4631 124.272 34.4893 125.913 34.4893C127.165 34.4893 128.417 34.9623 129.113 35.8805V37.9394C128.417 38.8576 127.165 39.3306 125.913 39.3306ZM140.997 41.3339C144.614 41.3339 146.589 39.5254 146.589 37.1325C146.589 31.7904 138.465 33.5711 138.465 31.2061C138.465 30.2601 139.411 29.5367 140.941 29.5367C142.638 29.5367 144.113 30.2601 144.92 31.1505L146.144 29.0915C144.947 28.0342 143.222 27.2274 140.941 27.2274C137.546 27.2274 135.654 29.0915 135.654 31.2896C135.654 36.4648 143.779 34.5728 143.779 37.216C143.779 38.2733 142.861 38.9967 141.108 38.9967C139.383 38.9967 137.519 38.1064 136.573 37.1325L135.237 39.2193C136.628 40.5826 138.687 41.3339 140.997 41.3339ZM154.677 41.3339C158.294 41.3339 160.269 39.5254 160.269 37.1325C160.269 31.7904 152.145 33.5711 152.145 31.2061C152.145 30.2601 153.091 29.5367 154.621 29.5367C156.318 29.5367 157.793 30.2601 158.6 31.1505L159.824 29.0915C158.628 28.0342 156.903 27.2274 154.621 27.2274C151.227 27.2274 149.335 29.0915 149.335 31.2896C149.335 36.4648 157.459 34.5728 157.459 37.216C157.459 38.2733 156.541 38.9967 154.788 38.9967C153.063 38.9967 151.199 38.1064 150.253 37.1325L148.917 39.2193C150.308 40.5826 152.367 41.3339 154.677 41.3339ZM174.896 41V32.0686C174.896 28.4794 172.28 27.2274 169.275 27.2274C167.133 27.2274 165.185 27.8951 163.627 29.3976L164.851 31.4287C165.992 30.2601 167.328 29.7036 168.83 29.7036C170.666 29.7036 171.974 30.6496 171.974 32.2078V34.2111C170.972 33.0703 169.442 32.486 167.606 32.486C165.408 32.486 162.959 33.7659 162.959 36.8821C162.959 39.8314 165.436 41.3339 167.606 41.3339C169.387 41.3339 170.972 40.6939 171.974 39.5254V41H174.896ZM168.774 39.3306C167.133 39.3306 165.881 38.3846 165.881 36.9099C165.881 35.4631 167.133 34.4893 168.774 34.4893C170.026 34.4893 171.279 34.9623 171.974 35.8805V37.9394C171.279 38.8576 170.026 39.3306 168.774 39.3306ZM191.621 41V22.4417H188.699V29.4254C187.642 27.9786 186.084 27.2274 184.386 27.2274C180.936 27.2274 178.432 29.9262 178.432 34.2667C178.432 38.7185 180.964 41.3339 184.386 41.3339C186.139 41.3339 187.67 40.4992 188.699 39.1636V41H191.621ZM185.249 38.7463C182.912 38.7463 181.437 36.8821 181.437 34.2667C181.437 31.6791 182.912 29.8149 185.249 29.8149C186.612 29.8149 188.059 30.6218 188.699 31.6235V36.9378C188.059 37.9394 186.612 38.7463 185.249 38.7463ZM202.056 41.3339C206.341 41.3339 208.956 38.1064 208.956 34.2667C208.956 30.3992 206.341 27.2274 202.056 27.2274C197.771 27.2274 195.156 30.3992 195.156 34.2667C195.156 38.1064 197.771 41.3339 202.056 41.3339ZM202.056 38.7463C199.58 38.7463 198.188 36.6595 198.188 34.2667C198.188 31.9017 199.58 29.8149 202.056 29.8149C204.56 29.8149 205.923 31.9017 205.923 34.2667C205.923 36.6595 204.56 38.7463 202.056 38.7463ZM215.417 41V31.8461C216.002 30.8722 217.643 30.0375 218.895 30.0375C219.257 30.0375 219.535 30.0654 219.786 30.121V27.2274C218.061 27.2274 216.447 28.229 215.417 29.5089V27.5612H212.496V41H215.417ZM227.317 41.3339C230.934 41.3339 232.909 39.5254 232.909 37.1325C232.909 31.7904 224.785 33.5711 224.785 31.2061C224.785 30.2601 225.731 29.5367 227.261 29.5367C228.958 29.5367 230.433 30.2601 231.24 31.1505L232.464 29.0915C231.268 28.0342 229.543 27.2274 227.261 27.2274C223.867 27.2274 221.975 29.0915 221.975 31.2896C221.975 36.4648 230.099 34.5728 230.099 37.216C230.099 38.2733 229.181 38.9967 227.428 38.9967C225.703 38.9967 223.839 38.1064 222.893 37.1325L221.557 39.2193C222.949 40.5826 225.008 41.3339 227.317 41.3339Z" fill="black"/>
<g clip-path="url(#clip0_910_6640)">
<path d="M12.044 2.76766C8.99957 3.14941 6.45141 4.39963 4.29454 6.57559C2.35717 8.5225 1.19284 10.5839 0.524784 13.2657C-0.658633 17.9135 0.200299 22.4944 3.04432 26.7986C4.86716 29.5568 7.22445 32.0858 11.5477 35.9415C14.2963 38.3942 22.6852 45.552 23.0956 45.7906C23.4773 46.0196 23.6205 46.0482 24.4317 46.0482C25.2429 46.0482 25.3861 46.0196 25.7678 45.7906C26.1782 45.552 34.5862 38.3847 37.3157 35.9415C41.658 32.0668 43.9963 29.5472 45.8191 26.7986C48.6631 22.4944 49.522 17.9135 48.3386 13.2657C47.6706 10.5839 46.5062 8.5225 44.5689 6.57559C42.641 4.63822 40.5796 3.52161 37.8787 2.94899C36.5235 2.66268 34.0231 2.63405 32.8397 2.90127C29.5376 3.61705 27.0085 5.2681 24.6989 8.20756L24.4317 8.54159L24.174 8.20756C21.8931 5.32537 19.4022 3.67431 16.2241 2.94899C15.2793 2.72948 13.1034 2.63405 12.044 2.76766Z" fill="#F3E008"/>
</g>
<defs>
<clipPath id="clip0_910_6640">
<rect width="48.8636" height="48.8636" fill="white"/>
</clipPath>
</defs>
</svg>
